<svg xmlns="http://www.w3.org/2000/svg" viewBox="0 0 400 400" width="400" height="400">
  <defs>
    <linearGradient id="tealGrad3" x1="0%" y1="0%" x2="100%" y2="100%">
      <stop offset="0%" style="stop-color:#2ECC71;stop-opacity:1" />
      <stop offset="100%" style="stop-color:#1ABC9C;stop-opacity:1" />
    </linearGradient>
  </defs>
  <rect width="400" height="400" rx="48" fill="#0A0F1C"/>
  <rect x="72" y="96" width="48" height="56" rx="4" fill="url(#tealGrad3)"/>
  <rect x="72" y="164" width="48" height="56" rx="4" fill="url(#tealGrad3)"/>
  <rect x="72" y="232" width="48" height="56" rx="4" fill="url(#tealGrad3)"/>
  <rect x="132" y="96" width="56" height="48" rx="4" fill="url(#tealGrad3)" opacity="0.9"/>
  <rect x="132" y="240" width="56" height="48" rx="4" fill="url(#tealGrad3)" opacity="0.9"/>
  <rect x="132" y="176" width="56" height="36" rx="4" fill="url(#tealGrad3)" opacity="0.75"/>
  <rect x="216" y="96" width="48" height="56" rx="4" fill="url(#tealGrad3)"/>
  <rect x="216" y="164" width="48" height="56" rx="4" fill="url(#tealGrad3)"/>
  <rect x="216" y="232" width="48" height="56" rx="4" fill="url(#tealGrad3)"/>
  <rect x="276" y="96" width="52" height="48" rx="4" fill="url(#tealGrad3)" opacity="0.9"/>
  <rect x="276" y="240" width="52" height="48" rx="4" fill="url(#tealGrad3)" opacity="0.9"/>
  <rect x="316" y="156" width="40" height="48" rx="4" fill="url(#tealGrad3)" opacity="0.85"/>
  <rect x="316" y="216" width="40" height="12" rx="4" fill="url(#tealGrad3)" opacity="0.7"/>
  <rect x="316" y="120" width="40" height="24" rx="4" fill="url(#tealGrad3)" opacity="0.7"/>
  <line x1="72" y1="340" x2="356" y2="340" stroke="url(#tealGrad3)" stroke-width="2" opacity="0.2"/>
</svg>
