<svg xmlns="http://www.w3.org/2000/svg" viewBox="0 0 1000 1000">
<defs>
  <linearGradient id="tg" x1="0" y1="0" x2="0" y2="1">
    <stop offset="0%" stop-color="#2ECC71"/>
    <stop offset="100%" stop-color="#1ABC9C"/>
  </linearGradient>
</defs>
<g opacity="0.07" stroke="#2ECC71" stroke-width="1" fill="none">
  <line x1="136" y1="0" x2="136" y2="1000"/>
  <line x1="181" y1="0" x2="181" y2="1000"/>
  <line x1="226" y1="0" x2="226" y2="1000"/>
  <line x1="271" y1="0" x2="271" y2="1000"/>
  <line x1="316" y1="0" x2="316" y2="1000"/>
  <line x1="361" y1="0" x2="361" y2="1000"/>
  <line x1="406" y1="0" x2="406" y2="1000"/>
  <line x1="451" y1="0" x2="451" y2="1000"/>
  <line x1="496" y1="0" x2="496" y2="1000"/>
  <line x1="541" y1="0" x2="541" y2="1000"/>
  <line x1="586" y1="0" x2="586" y2="1000"/>
  <line x1="631" y1="0" x2="631" y2="1000"/>
  <line x1="676" y1="0" x2="676" y2="1000"/>
  <line x1="721" y1="0" x2="721" y2="1000"/>
  <line x1="766" y1="0" x2="766" y2="1000"/>
  <line x1="811" y1="0" x2="811" y2="1000"/>
  <line x1="856" y1="0" x2="856" y2="1000"/>
  <line x1="0" y1="109" x2="1000" y2="109"/>
  <line x1="0" y1="154" x2="1000" y2="154"/>
  <line x1="0" y1="199" x2="1000" y2="199"/>
  <line x1="0" y1="244" x2="1000" y2="244"/>
  <line x1="0" y1="289" x2="1000" y2="289"/>
  <line x1="0" y1="334" x2="1000" y2="334"/>
  <line x1="0" y1="379" x2="1000" y2="379"/>
  <line x1="0" y1="424" x2="1000" y2="424"/>
  <line x1="0" y1="469" x2="1000" y2="469"/>
  <line x1="0" y1="514" x2="1000" y2="514"/>
  <line x1="0" y1="559" x2="1000" y2="559"/>
  <line x1="0" y1="604" x2="1000" y2="604"/>
  <line x1="0" y1="649" x2="1000" y2="649"/>
  <line x1="0" y1="694" x2="1000" y2="694"/>
  <line x1="0" y1="739" x2="1000" y2="739"/>
  <line x1="0" y1="784" x2="1000" y2="784"/>
  <line x1="0" y1="829" x2="1000" y2="829"/>
  <line x1="0" y1="874" x2="1000" y2="874"/>
  <line x1="0" y1="919" x2="1000" y2="919"/>
  <line x1="0" y1="964" x2="1000" y2="964"/>
</g>
<g stroke="#1ABC9C" stroke-width="2" opacity="0.24" fill="none">
  <line x1="271" y1="204" x2="705" y2="204"/>
  <line x1="271" y1="196" x2="271" y2="212"/>
  <line x1="705" y1="196" x2="705" y2="212"/>
  <line x1="745" y1="244" x2="745" y2="768"/>
  <line x1="737" y1="244" x2="753" y2="244"/>
  <line x1="737" y1="768" x2="753" y2="768"/>
</g>
<g fill="url(#tg)">
  <circle cx="271" cy="244" r="5"/>
  <circle cx="705" cy="244" r="5"/>
  <circle cx="271" cy="768" r="5"/>
  <circle cx="705" cy="768" r="5"/>
</g>
<g fill="url(#tg)" opacity="0.59">
  <polygon points="705,244 729,231 729,305 705,318"/>
  <polygon points="345,334 369,321 369,395 345,408"/>
  <polygon points="345,424 369,411 369,485 345,498"/>
  <polygon points="345,514 369,501 369,575 345,588"/>
  <polygon points="705,514 729,501 729,575 705,588"/>
  <polygon points="345,604 369,591 369,665 345,678"/>
  <polygon points="705,604 729,591 729,665 705,678"/>
  <polygon points="705,694 729,681 729,755 705,768"/>
</g>
<g fill="url(#tg)" opacity="0.82">
  <polygon points="271,244 295,231 369,231 345,244"/>
  <polygon points="361,244 385,231 459,231 435,244"/>
  <polygon points="451,244 475,231 549,231 525,244"/>
  <polygon points="541,244 565,231 639,231 615,244"/>
  <polygon points="631,244 655,231 729,231 705,244"/>
  <polygon points="451,514 475,501 549,501 525,514"/>
  <polygon points="541,514 565,501 639,501 615,514"/>
  <polygon points="631,514 655,501 729,501 705,514"/>
  <polygon points="361,694 385,681 459,681 435,694"/>
  <polygon points="451,694 475,681 549,681 525,694"/>
  <polygon points="541,694 565,681 639,681 615,694"/>
</g>
<g fill="url(#tg)">
  <rect x="271" y="244" width="74" height="74"/>
  <rect x="361" y="244" width="74" height="74"/>
  <rect x="451" y="244" width="74" height="74"/>
  <rect x="541" y="244" width="74" height="74"/>
  <rect x="631" y="244" width="74" height="74"/>
  <rect x="271" y="334" width="74" height="74"/>
  <rect x="271" y="424" width="74" height="74"/>
  <rect x="271" y="514" width="74" height="74"/>
  <rect x="451" y="514" width="74" height="74"/>
  <rect x="541" y="514" width="74" height="74"/>
  <rect x="631" y="514" width="74" height="74"/>
  <rect x="271" y="604" width="74" height="74"/>
  <rect x="631" y="604" width="74" height="74"/>
  <rect x="271" y="694" width="74" height="74"/>
  <rect x="361" y="694" width="74" height="74"/>
  <rect x="451" y="694" width="74" height="74"/>
  <rect x="541" y="694" width="74" height="74"/>
  <rect x="631" y="694" width="74" height="74"/>
</g>
</svg>