<svg xmlns="http://www.w3.org/2000/svg" viewBox="0 0 1000 1350">
<style>@import url("https://fonts.googleapis.com/css2?family=Space+Grotesk:wght@500;700");</style>
<defs>
  <linearGradient id="tg" x1="0" y1="0" x2="0" y2="1">
    <stop offset="0%" stop-color="#2ECC71"/>
    <stop offset="100%" stop-color="#1ABC9C"/>
  </linearGradient>
</defs>
<rect width="1000" height="1350" fill="#0A0F1C"/>
<g opacity="0.07" stroke="#2ECC71" stroke-width="1" fill="none">
  <line x1="136" y1="0" x2="136" y2="1350"/>
  <line x1="181" y1="0" x2="181" y2="1350"/>
  <line x1="226" y1="0" x2="226" y2="1350"/>
  <line x1="271" y1="0" x2="271" y2="1350"/>
  <line x1="316" y1="0" x2="316" y2="1350"/>
  <line x1="361" y1="0" x2="361" y2="1350"/>
  <line x1="406" y1="0" x2="406" y2="1350"/>
  <line x1="451" y1="0" x2="451" y2="1350"/>
  <line x1="496" y1="0" x2="496" y2="1350"/>
  <line x1="541" y1="0" x2="541" y2="1350"/>
  <line x1="586" y1="0" x2="586" y2="1350"/>
  <line x1="631" y1="0" x2="631" y2="1350"/>
  <line x1="676" y1="0" x2="676" y2="1350"/>
  <line x1="721" y1="0" x2="721" y2="1350"/>
  <line x1="766" y1="0" x2="766" y2="1350"/>
  <line x1="811" y1="0" x2="811" y2="1350"/>
  <line x1="856" y1="0" x2="856" y2="1350"/>
  <line x1="0" y1="45" x2="1000" y2="45"/>
  <line x1="0" y1="90" x2="1000" y2="90"/>
  <line x1="0" y1="135" x2="1000" y2="135"/>
  <line x1="0" y1="180" x2="1000" y2="180"/>
  <line x1="0" y1="225" x2="1000" y2="225"/>
  <line x1="0" y1="270" x2="1000" y2="270"/>
  <line x1="0" y1="315" x2="1000" y2="315"/>
  <line x1="0" y1="360" x2="1000" y2="360"/>
  <line x1="0" y1="405" x2="1000" y2="405"/>
  <line x1="0" y1="450" x2="1000" y2="450"/>
  <line x1="0" y1="495" x2="1000" y2="495"/>
  <line x1="0" y1="540" x2="1000" y2="540"/>
  <line x1="0" y1="585" x2="1000" y2="585"/>
  <line x1="0" y1="630" x2="1000" y2="630"/>
  <line x1="0" y1="675" x2="1000" y2="675"/>
  <line x1="0" y1="720" x2="1000" y2="720"/>
  <line x1="0" y1="765" x2="1000" y2="765"/>
  <line x1="0" y1="810" x2="1000" y2="810"/>
  <line x1="0" y1="855" x2="1000" y2="855"/>
  <line x1="0" y1="900" x2="1000" y2="900"/>
  <line x1="0" y1="945" x2="1000" y2="945"/>
</g>
<g stroke="#1ABC9C" stroke-width="2" opacity="0.24" fill="none">
  <line x1="271" y1="140" x2="705" y2="140"/>
  <line x1="271" y1="132" x2="271" y2="148"/>
  <line x1="705" y1="132" x2="705" y2="148"/>
  <line x1="745" y1="180" x2="745" y2="704"/>
  <line x1="737" y1="180" x2="753" y2="180"/>
  <line x1="737" y1="704" x2="753" y2="704"/>
</g>
<g fill="url(#tg)">
  <circle cx="271" cy="180" r="5"/>
  <circle cx="705" cy="180" r="5"/>
  <circle cx="271" cy="704" r="5"/>
  <circle cx="705" cy="704" r="5"/>
</g>
<g fill="url(#tg)" opacity="0.59">
  <polygon points="705,180 729,167 729,241 705,254"/>
  <polygon points="345,270 369,257 369,331 345,344"/>
  <polygon points="345,360 369,347 369,421 345,434"/>
  <polygon points="345,450 369,437 369,511 345,524"/>
  <polygon points="705,450 729,437 729,511 705,524"/>
  <polygon points="345,540 369,527 369,601 345,614"/>
  <polygon points="705,540 729,527 729,601 705,614"/>
  <polygon points="705,630 729,617 729,691 705,704"/>
</g>
<g fill="url(#tg)" opacity="0.82">
  <polygon points="271,180 295,167 369,167 345,180"/>
  <polygon points="361,180 385,167 459,167 435,180"/>
  <polygon points="451,180 475,167 549,167 525,180"/>
  <polygon points="541,180 565,167 639,167 615,180"/>
  <polygon points="631,180 655,167 729,167 705,180"/>
  <polygon points="451,450 475,437 549,437 525,450"/>
  <polygon points="541,450 565,437 639,437 615,450"/>
  <polygon points="631,450 655,437 729,437 705,450"/>
  <polygon points="361,630 385,617 459,617 435,630"/>
  <polygon points="451,630 475,617 549,617 525,630"/>
  <polygon points="541,630 565,617 639,617 615,630"/>
</g>
<g fill="url(#tg)">
  <rect x="271" y="180" width="74" height="74"/>
  <rect x="361" y="180" width="74" height="74"/>
  <rect x="451" y="180" width="74" height="74"/>
  <rect x="541" y="180" width="74" height="74"/>
  <rect x="631" y="180" width="74" height="74"/>
  <rect x="271" y="270" width="74" height="74"/>
  <rect x="271" y="360" width="74" height="74"/>
  <rect x="271" y="450" width="74" height="74"/>
  <rect x="451" y="450" width="74" height="74"/>
  <rect x="541" y="450" width="74" height="74"/>
  <rect x="631" y="450" width="74" height="74"/>
  <rect x="271" y="540" width="74" height="74"/>
  <rect x="631" y="540" width="74" height="74"/>
  <rect x="271" y="630" width="74" height="74"/>
  <rect x="361" y="630" width="74" height="74"/>
  <rect x="451" y="630" width="74" height="74"/>
  <rect x="541" y="630" width="74" height="74"/>
  <rect x="631" y="630" width="74" height="74"/>
</g>
<text text-anchor="middle" x="500" y="854" font-family="Space Grotesk,sans-serif" font-weight="700" font-size="74" fill="url(#tg)" letter-spacing="8">GROUNDWORK</text>
<text text-anchor="middle" x="500" y="909" font-family="Space Grotesk,sans-serif" font-weight="500" font-size="36" fill="url(#tg)" opacity="0.67" letter-spacing="12">DIGITAL STUDIO</text>
</svg>